<?xml version="1.0" encoding="UTF-8" standalone="no"?>
<svg
   version="1.1"
   id="svg2"
   width="1587.4"
   height="1122.52"
   viewBox="0 0 1587.4 1122.52"
   xmlns="http://www.w3.org/2000/svg"
   xmlns:svg="http://www.w3.org/2000/svg">
  <defs
     id="defs6">
    <clipPath
       clipPathUnits="userSpaceOnUse"
       id="clipPath18">
      <path
         d="M 0,0.2099707 H 1190.52 V 841.89007 H 0 Z"
         id="path16" />
    </clipPath>
  </defs>
  <g
     id="g8"
     transform="matrix(1.3333333,0,0,-1.3333333,0,1122.52)">
    <g
       id="g10" />
    <g
       id="g12">
      <g
         id="g14"
         clip-path="url(#clipPath18)">
        <g
           id="g20"
           transform="matrix(0.36,0,0,-0.36,0,841.89)">
          <path
             d="m 1776.58,1233.157 c 0,-49.731 44.324,-90.046 99,-90.046 54.676,0 99,40.315 99,90.046 0,0 0,0 0,0"
             style="fill:none;stroke:#000000;stroke-width:1;stroke-linecap:round;stroke-linejoin:miter;stroke-miterlimit:2.818;stroke-dasharray:none;stroke-opacity:1"
             id="path22" />
        </g>
        <g
           id="g24"
           transform="matrix(0.36,0,0,-0.36,0,841.89)">
          <path
             d="m 1783.518,1265.965 c 19.647,46.143 76.7,69.062 127.431,51.191 25.842,-9.103 46.273,-27.686 56.282,-51.191"
             style="fill:none;stroke:#000000;stroke-width:1;stroke-linecap:round;stroke-linejoin:miter;stroke-miterlimit:2.818;stroke-dasharray:none;stroke-opacity:1"
             id="path26" />
        </g>
        <g
           id="g28"
           transform="matrix(0.36,0,0,-0.36,0,841.89)">
          <path
             d="m 1776.58,1233.157 h 198"
             style="fill:none;stroke:#000000;stroke-width:1;stroke-linecap:round;stroke-linejoin:miter;stroke-miterlimit:2.818;stroke-dasharray:none;stroke-opacity:1"
             id="path30" />
        </g>
        <g
           id="g32"
           transform="matrix(0.36,0,0,-0.36,0,841.89)">
          <path
             d="m 1776.58,1233.157 c 0.165,49.628 44.531,89.737 99.093,89.587 40.415,-0.111 76.68,-22.601 91.558,-56.779"
             style="fill:none;stroke:#000000;stroke-width:1;stroke-linecap:round;stroke-linejoin:miter;stroke-miterlimit:2.818;stroke-dasharray:none;stroke-opacity:1"
             id="path34" />
        </g>
        <g
           id="g36"
           transform="matrix(0.36,0,0,-0.36,0,841.89)">
          <path
             d="m 1534.887,1224.13 c 0.443,-54.687 -43.53,-99.38 -98.217,-99.824 -30.337,-0.246 -59.112,13.427 -78.081,37.102"
             style="fill:none;stroke:#000000;stroke-width:1;stroke-linecap:round;stroke-linejoin:miter;stroke-miterlimit:2.818;stroke-dasharray:none;stroke-opacity:1"
             id="path38" />
        </g>
        <g
           id="g40"
           transform="matrix(0.36,0,0,-0.36,0,841.89)">
          <path
             d="M 1359.167,1161.871 V 1322.35"
             style="fill:none;stroke:#000000;stroke-width:1;stroke-linecap:round;stroke-linejoin:miter;stroke-miterlimit:2.818;stroke-dasharray:none;stroke-opacity:1"
             id="path42" />
        </g>
        <g
           id="g44"
           transform="matrix(0.36,0,0,-0.36,0,841.89)">
          <path
             d="m 1359.167,1124.303 v 36.108"
             style="fill:none;stroke:#000000;stroke-width:1;stroke-linecap:round;stroke-linejoin:miter;stroke-miterlimit:2.818;stroke-dasharray:none;stroke-opacity:1"
             id="path46" />
        </g>
        <g
           id="g48"
           transform="matrix(0.36,0,0,-0.36,0,841.89)">
          <path
             d="m 1559.265,1260.247 c 20.838,51.479 78.721,76.011 129.285,54.796 20.947,-8.79 38.301,-24.627 49.165,-44.869"
             style="fill:none;stroke:#000000;stroke-width:1;stroke-linecap:round;stroke-linejoin:miter;stroke-miterlimit:2.818;stroke-dasharray:none;stroke-opacity:1"
             id="path50" />
        </g>
        <g
           id="g52"
           transform="matrix(0.36,0,0,-0.36,0,841.89)">
          <path
             d="m 1742.202,1183.004 c -21.063,-51.383 -79.053,-75.653 -129.523,-54.209 -6.399,2.719 -12.5,6.114 -18.201,10.131"
             style="fill:none;stroke:#000000;stroke-width:1;stroke-linecap:round;stroke-linejoin:miter;stroke-miterlimit:2.818;stroke-dasharray:none;stroke-opacity:1"
             id="path54" />
        </g>
        <g
           id="g56"
           transform="matrix(0.36,0,0,-0.36,0,841.89)">
          <path
             d="m 1594.478,1138.925 c -2.229,1.57 -4.393,3.233 -6.488,4.983"
             style="fill:none;stroke:#000000;stroke-width:1;stroke-linecap:round;stroke-linejoin:miter;stroke-miterlimit:2.818;stroke-dasharray:none;stroke-opacity:1"
             id="path58" />
        </g>
        <g
           id="g60"
           transform="matrix(0.36,0,0,-0.36,0,841.89)">
          <path
             d="m 1717.828,1219.587 c 7.722,5.27 13.888,11.405 18.195,18.106"
             style="fill:none;stroke:#000000;stroke-width:1;stroke-linecap:round;stroke-linejoin:miter;stroke-miterlimit:2.818;stroke-dasharray:none;stroke-opacity:1"
             id="path62" />
        </g>
        <g
           id="g64"
           transform="matrix(0.36,0,0,-0.36,0,841.89)">
          <path
             d="m 1650.818,1200.962 c 25.351,0 49.586,6.736 67.01,18.625"
             style="fill:none;stroke:#000000;stroke-width:1;stroke-linecap:round;stroke-linejoin:miter;stroke-miterlimit:2.818;stroke-dasharray:none;stroke-opacity:1"
             id="path66" />
        </g>
        <g
           id="g68"
           transform="matrix(0.36,0,0,-0.36,0,841.89)">
          <path
             d="m 1617.037,1205.103 c 10.759,-2.736 22.218,-4.141 33.781,-4.141"
             style="fill:none;stroke:#000000;stroke-width:1;stroke-linecap:round;stroke-linejoin:miter;stroke-miterlimit:2.818;stroke-dasharray:none;stroke-opacity:1"
             id="path70" />
        </g>
        <g
           id="g72"
           transform="matrix(0.36,0,0,-0.36,0,841.89)">
          <path
             d="m 1616.958,1204.974 c -18.652,3.733 -36.745,-8.634 -40.412,-27.623 -1.971,-10.204 0.612,-20.772 7.05,-28.845"
             style="fill:none;stroke:#000000;stroke-width:1;stroke-linecap:round;stroke-linejoin:miter;stroke-miterlimit:2.818;stroke-dasharray:none;stroke-opacity:1"
             id="path74" />
        </g>
        <g
           id="g76"
           transform="matrix(0.36,0,0,-0.36,0,841.89)">
          <path
             d="m 1737.323,1269.92 c 6.501,-10.385 5.682,-23.852 -2.027,-33.341"
             style="fill:none;stroke:#000000;stroke-width:1;stroke-linecap:round;stroke-linejoin:miter;stroke-miterlimit:2.818;stroke-dasharray:none;stroke-opacity:1"
             id="path78" />
        </g>
        <g
           id="g80"
           transform="matrix(0.36,0,0,-0.36,0,841.89)">
          <path
             d="m 1583.596,1148.506 4.394,-4.598"
             style="fill:none;stroke:#000000;stroke-width:1;stroke-linecap:round;stroke-linejoin:miter;stroke-miterlimit:2.818;stroke-dasharray:none;stroke-opacity:1"
             id="path82" />
        </g>
        <g
           id="g84"
           transform="matrix(0.36,0,0,-0.36,0,841.89)">
          <path
             d="M 2008.958,1124.693 V 1322.74"
             style="fill:none;stroke:#000000;stroke-width:1;stroke-linecap:round;stroke-linejoin:miter;stroke-miterlimit:2.818;stroke-dasharray:none;stroke-opacity:1"
             id="path86" />
        </g>
        <g
           id="g88"
           transform="matrix(0.36,0,0,-0.36,0,841.89)">
          <path
             d="m 2013.217,1096.859 c 0,-2.352 -1.906,-4.259 -4.259,-4.259 -2.352,0 -4.259,1.907 -4.259,4.259 0,2.353 1.907,4.259 4.259,4.259 2.353,0 4.259,-1.906 4.259,-4.259 z"
             style="fill:none;stroke:#000000;stroke-width:1;stroke-linecap:round;stroke-linejoin:miter;stroke-miterlimit:2.818;stroke-dasharray:none;stroke-opacity:1"
             id="path90" />
        </g>
        <g
           id="g92"
           transform="matrix(0.36,0,0,-0.36,0,841.89)">
          <path
             d="M 2052.785,925.6454 V 1321.74"
             style="fill:none;stroke:#000000;stroke-width:1;stroke-linecap:round;stroke-linejoin:miter;stroke-miterlimit:2.818;stroke-dasharray:none;stroke-opacity:1"
             id="path94" />
        </g>
        <g
           id="g96"
           transform="matrix(0.36,0,0,-0.36,0,841.89)">
          <path
             d="M 2043.336,925.6454 V 1321.74"
             style="fill:none;stroke:#000000;stroke-width:1;stroke-linecap:round;stroke-linejoin:miter;stroke-miterlimit:2.818;stroke-dasharray:none;stroke-opacity:1"
             id="path98" />
        </g>
        <g
           id="g100"
           transform="matrix(0.36,0,0,-0.36,0,841.89)">
          <path
             d="m 2043.336,1321.74 h 99.024"
             style="fill:none;stroke:#000000;stroke-width:1;stroke-linecap:round;stroke-linejoin:miter;stroke-miterlimit:2.818;stroke-dasharray:none;stroke-opacity:1"
             id="path102" />
        </g>
        <g
           id="g104"
           transform="matrix(0.36,0,0,-0.36,0,841.89)">
          <path
             d="m 2043.336,925.6454 h 9.449"
             style="fill:none;stroke:#000000;stroke-width:1;stroke-linecap:round;stroke-linejoin:miter;stroke-miterlimit:2.818;stroke-dasharray:none;stroke-opacity:1"
             id="path106" />
        </g>
        <g
           id="g120"
           transform="matrix(0.36,0,0,-0.36,0,841.89)">
          <path
             d="m 1325.116,1285.558 c -34.37,42.54 -96.717,49.164 -139.257,14.794 -42.54,-34.369 -49.164,-96.717 -14.795,-139.257 34.369,-42.54 96.717,-49.164 139.257,-14.794 5.545,4.479 10.589,9.545 15.046,15.107"
             style="fill:none;stroke:#000000;stroke-width:1;stroke-linecap:round;stroke-linejoin:miter;stroke-miterlimit:2.818;stroke-dasharray:none;stroke-opacity:1"
             id="path122" />
        </g>
        <g
           id="g124"
           transform="matrix(0.36,0,0,-0.36,0,841.89)">
          <path
             d="M 1324.789,1161.871 V 1322.35"
             style="fill:none;stroke:#000000;stroke-width:1;stroke-linecap:round;stroke-linejoin:miter;stroke-miterlimit:2.818;stroke-dasharray:none;stroke-opacity:1"
             id="path126" />
        </g>
        <g
           id="g128"
           transform="matrix(0.36,0,0,-0.36,0,841.89)">
          <path
             d="m 1324.789,1124.303 v 36.108"
             style="fill:none;stroke:#000000;stroke-width:1;stroke-linecap:round;stroke-linejoin:miter;stroke-miterlimit:2.818;stroke-dasharray:none;stroke-opacity:1"
             id="path130" />
        </g>
        <g
           id="g164"
           transform="matrix(0.36,0,0,-0.36,0,841.89)">
          <path
             d="M 1104.552,945.1533 V 1322.35"
             style="fill:none;stroke:#000000;stroke-width:1;stroke-linecap:round;stroke-linejoin:miter;stroke-miterlimit:2.818;stroke-dasharray:none;stroke-opacity:1"
             id="path166" />
        </g>
        <g
           id="g168"
           transform="matrix(0.36,0,0,-0.36,0,841.89)">
          <path
             d="M 1114,926.2556 V 1322.35"
             style="fill:none;stroke:#000000;stroke-width:1;stroke-linecap:round;stroke-linejoin:miter;stroke-miterlimit:2.818;stroke-dasharray:none;stroke-opacity:1"
             id="path170" />
        </g>
        <g
           id="g172"
           transform="matrix(0.36,0,0,-0.36,0,841.89)">
          <path
             d="M 925.402,945.1533 V 1322.35"
             style="fill:none;stroke:#000000;stroke-width:1;stroke-linecap:round;stroke-linejoin:miter;stroke-miterlimit:2.818;stroke-dasharray:none;stroke-opacity:1"
             id="path174" />
        </g>
        <g
           id="g176"
           transform="matrix(0.36,0,0,-0.36,0,841.89)">
          <path
             d="M 915.9531,926.2556 V 1322.35"
             style="fill:none;stroke:#000000;stroke-width:1;stroke-linecap:round;stroke-linejoin:miter;stroke-miterlimit:2.818;stroke-dasharray:none;stroke-opacity:1"
             id="path178" />
        </g>
        <g
           id="g180"
           transform="matrix(0.36,0,0,-0.36,0,841.89)">
          <path
             d="m 915.9531,926.2556 9.4489,18.8977"
             style="fill:none;stroke:#000000;stroke-width:1;stroke-linecap:round;stroke-linejoin:miter;stroke-miterlimit:2.818;stroke-dasharray:none;stroke-opacity:1"
             id="path182" />
        </g>
        <g
           id="g184"
           transform="matrix(0.36,0,0,-0.36,0,841.89)">
          <path
             d="m 925.402,945.1533 89.575,179.1497"
             style="fill:none;stroke:#000000;stroke-width:1;stroke-linecap:round;stroke-linejoin:miter;stroke-miterlimit:2.818;stroke-dasharray:none;stroke-opacity:1"
             id="path186" />
        </g>
        <g
           id="g188"
           transform="matrix(0.36,0,0,-0.36,0,841.89)">
          <path
             d="m 1014.977,1124.303 89.575,-179.1497"
             style="fill:none;stroke:#000000;stroke-width:1;stroke-linecap:round;stroke-linejoin:miter;stroke-miterlimit:2.818;stroke-dasharray:none;stroke-opacity:1"
             id="path190" />
        </g>
        <g
           id="g192"
           transform="matrix(0.36,0,0,-0.36,0,841.89)">
          <path
             d="M 1104.552,945.1533 1114,926.2556"
             style="fill:none;stroke:#000000;stroke-width:1;stroke-linecap:round;stroke-linejoin:miter;stroke-miterlimit:2.818;stroke-dasharray:none;stroke-opacity:1"
             id="path194" />
        </g>
        <g
           id="g196"
           transform="matrix(0.36,0,0,-0.36,0,841.89)">
          <path
             d="m 915.9531,1322.35 h 9.4489"
             style="fill:none;stroke:#000000;stroke-width:1;stroke-linecap:round;stroke-linejoin:miter;stroke-miterlimit:2.818;stroke-dasharray:none;stroke-opacity:1"
             id="path198" />
        </g>
        <g
           id="g200"
           transform="matrix(0.36,0,0,-0.36,0,841.89)">
          <path
             d="M 1104.552,1322.35 H 1114"
             style="fill:none;stroke:#000000;stroke-width:1;stroke-linecap:round;stroke-linejoin:miter;stroke-miterlimit:2.818;stroke-dasharray:none;stroke-opacity:1"
             id="path202" />
        </g>
        <g
           id="g248"
           transform="matrix(0.36,0,0,-0.36,0,841.89)">
          <path
             d="M 2186.187,925.6454 V 1321.74"
             style="fill:none;stroke:#000000;stroke-width:1;stroke-linecap:round;stroke-linejoin:miter;stroke-miterlimit:2.818;stroke-dasharray:none;stroke-opacity:1"
             id="path250" />
        </g>
        <g
           id="g252"
           transform="matrix(0.36,0,0,-0.36,0,841.89)">
          <path
             d="M 2176.738,925.6454 V 1321.74"
             style="fill:none;stroke:#000000;stroke-width:1;stroke-linecap:round;stroke-linejoin:miter;stroke-miterlimit:2.818;stroke-dasharray:none;stroke-opacity:1"
             id="path254" />
        </g>
        <g
           id="g256"
           transform="matrix(0.36,0,0,-0.36,0,841.89)">
          <path
             d="m 2176.738,1321.74 h 99.023"
             style="fill:none;stroke:#000000;stroke-width:1;stroke-linecap:round;stroke-linejoin:miter;stroke-miterlimit:2.818;stroke-dasharray:none;stroke-opacity:1"
             id="path258" />
        </g>
        <g
           id="g260"
           transform="matrix(0.36,0,0,-0.36,0,841.89)">
          <path
             d="m 2176.738,925.6454 h 9.449"
             style="fill:none;stroke:#000000;stroke-width:1;stroke-linecap:round;stroke-linejoin:miter;stroke-miterlimit:2.818;stroke-dasharray:none;stroke-opacity:1"
             id="path262" />
        </g>
        <g
           id="g264"
           transform="matrix(0.36,0,0,-0.36,0,841.89)">
          <path
             d="m 2300.139,1232.587 c 0,-49.731 44.324,-90.046 99,-90.046 54.676,0 99,40.315 99,90.046 0,0 0,0 0,0"
             style="fill:none;stroke:#000000;stroke-width:1;stroke-linecap:round;stroke-linejoin:miter;stroke-miterlimit:2.818;stroke-dasharray:none;stroke-opacity:1"
             id="path266" />
        </g>
        <g
           id="g268"
           transform="matrix(0.36,0,0,-0.36,0,841.89)">
          <path
             d="m 2307.077,1265.395 c 19.647,46.143 76.7,69.062 127.431,51.191 25.842,-9.103 46.273,-27.686 56.282,-51.191"
             style="fill:none;stroke:#000000;stroke-width:1;stroke-linecap:round;stroke-linejoin:miter;stroke-miterlimit:2.818;stroke-dasharray:none;stroke-opacity:1"
             id="path270" />
        </g>
        <g
           id="g272"
           transform="matrix(0.36,0,0,-0.36,0,841.89)">
          <path
             d="m 2300.139,1232.587 h 198"
             style="fill:none;stroke:#000000;stroke-width:1;stroke-linecap:round;stroke-linejoin:miter;stroke-miterlimit:2.818;stroke-dasharray:none;stroke-opacity:1"
             id="path274" />
        </g>
      </g>
    </g>
  </g>
</svg>
