<?xml version="1.0" encoding="UTF-8" standalone="no"?>
<svg
   version="1.1"
   id="svg2"
   width="1587.4"
   height="1122.52"
   viewBox="0 0 1587.4 1122.52"
   xmlns="http://www.w3.org/2000/svg"
   xmlns:svg="http://www.w3.org/2000/svg">
  <defs
     id="defs6">
    <clipPath
       clipPathUnits="userSpaceOnUse"
       id="clipPath18">
      <path
         d="M 0,0.2099707 H 1190.52 V 841.89007 H 0 Z"
         id="path16" />
    </clipPath>
  </defs>
  <g
     id="g8"
     transform="matrix(1.3333333,0,0,-1.3333333,0,1122.52)">
    <g
       id="g10" />
    <g
       id="g12">
      <g
         id="g14"
         clip-path="url(#clipPath18)">
        <g
           id="g20"
           transform="matrix(0.36,0,0,-0.36,0,841.89)">
          <path
             d="m 1776.58,1233.157 c 0,-49.731 44.324,-90.046 99,-90.046 54.676,0 99,40.315 99,90.046 0,0 0,0 0,0"
             style="fill:none;stroke:#000000;stroke-width:1;stroke-linecap:round;stroke-linejoin:miter;stroke-miterlimit:2.818;stroke-dasharray:none;stroke-opacity:1"
             id="path22" />
        </g>
        <g
           id="g24"
           transform="matrix(0.36,0,0,-0.36,0,841.89)">
          <path
             d="m 1783.518,1265.965 c 19.647,46.143 76.7,69.062 127.431,51.191 25.842,-9.103 46.273,-27.686 56.282,-51.191"
             style="fill:none;stroke:#000000;stroke-width:1;stroke-linecap:round;stroke-linejoin:miter;stroke-miterlimit:2.818;stroke-dasharray:none;stroke-opacity:1"
             id="path26" />
        </g>
        <g
           id="g28"
           transform="matrix(0.36,0,0,-0.36,0,841.89)">
          <path
             d="m 1776.58,1233.157 h 198"
             style="fill:none;stroke:#000000;stroke-width:1;stroke-linecap:round;stroke-linejoin:miter;stroke-miterlimit:2.818;stroke-dasharray:none;stroke-opacity:1"
             id="path30" />
        </g>
        <g
           id="g32"
           transform="matrix(0.36,0,0,-0.36,0,841.89)">
          <path
             d="m 1776.58,1233.157 c 0.165,49.628 44.531,89.737 99.093,89.587 40.415,-0.111 76.68,-22.601 91.558,-56.779"
             style="fill:none;stroke:#000000;stroke-width:1;stroke-linecap:round;stroke-linejoin:miter;stroke-miterlimit:2.818;stroke-dasharray:none;stroke-opacity:1"
             id="path34" />
        </g>
        <g
           id="g36"
           transform="matrix(0.36,0,0,-0.36,0,841.89)">
          <path
             d="m 1534.887,1224.13 c 0.443,-54.687 -43.53,-99.38 -98.217,-99.824 -30.337,-0.246 -59.112,13.427 -78.081,37.102"
             style="fill:none;stroke:#000000;stroke-width:1;stroke-linecap:round;stroke-linejoin:miter;stroke-miterlimit:2.818;stroke-dasharray:none;stroke-opacity:1"
             id="path38" />
        </g>
        <g
           id="g40"
           transform="matrix(0.36,0,0,-0.36,0,841.89)">
          <path
             d="M 1359.167,1161.871 V 1322.35"
             style="fill:none;stroke:#000000;stroke-width:1;stroke-linecap:round;stroke-linejoin:miter;stroke-miterlimit:2.818;stroke-dasharray:none;stroke-opacity:1"
             id="path42" />
        </g>
        <g
           id="g44"
           transform="matrix(0.36,0,0,-0.36,0,841.89)">
          <path
             d="m 1359.167,1124.303 v 36.108"
             style="fill:none;stroke:#000000;stroke-width:1;stroke-linecap:round;stroke-linejoin:miter;stroke-miterlimit:2.818;stroke-dasharray:none;stroke-opacity:1"
             id="path46" />
        </g>
        <g
           id="g48"
           transform="matrix(0.36,0,0,-0.36,0,841.89)">
          <path
             d="m 1559.265,1260.247 c 20.838,51.479 78.721,76.011 129.285,54.796 20.947,-8.79 38.301,-24.627 49.165,-44.869"
             style="fill:none;stroke:#000000;stroke-width:1;stroke-linecap:round;stroke-linejoin:miter;stroke-miterlimit:2.818;stroke-dasharray:none;stroke-opacity:1"
             id="path50" />
        </g>
        <g
           id="g52"
           transform="matrix(0.36,0,0,-0.36,0,841.89)">
          <path
             d="m 1742.202,1183.004 c -21.063,-51.383 -79.053,-75.653 -129.523,-54.209 -6.399,2.719 -12.5,6.114 -18.201,10.131"
             style="fill:none;stroke:#000000;stroke-width:1;stroke-linecap:round;stroke-linejoin:miter;stroke-miterlimit:2.818;stroke-dasharray:none;stroke-opacity:1"
             id="path54" />
        </g>
        <g
           id="g56"
           transform="matrix(0.36,0,0,-0.36,0,841.89)">
          <path
             d="m 1594.478,1138.925 c -2.229,1.57 -4.393,3.233 -6.488,4.983"
             style="fill:none;stroke:#000000;stroke-width:1;stroke-linecap:round;stroke-linejoin:miter;stroke-miterlimit:2.818;stroke-dasharray:none;stroke-opacity:1"
             id="path58" />
        </g>
        <g
           id="g60"
           transform="matrix(0.36,0,0,-0.36,0,841.89)">
          <path
             d="m 1717.828,1219.587 c 7.722,5.27 13.888,11.405 18.195,18.106"
             style="fill:none;stroke:#000000;stroke-width:1;stroke-linecap:round;stroke-linejoin:miter;stroke-miterlimit:2.818;stroke-dasharray:none;stroke-opacity:1"
             id="path62" />
        </g>
        <g
           id="g64"
           transform="matrix(0.36,0,0,-0.36,0,841.89)">
          <path
             d="m 1650.818,1200.962 c 25.351,0 49.586,6.736 67.01,18.625"
             style="fill:none;stroke:#000000;stroke-width:1;stroke-linecap:round;stroke-linejoin:miter;stroke-miterlimit:2.818;stroke-dasharray:none;stroke-opacity:1"
             id="path66" />
        </g>
        <g
           id="g68"
           transform="matrix(0.36,0,0,-0.36,0,841.89)">
          <path
             d="m 1617.037,1205.103 c 10.759,-2.736 22.218,-4.141 33.781,-4.141"
             style="fill:none;stroke:#000000;stroke-width:1;stroke-linecap:round;stroke-linejoin:miter;stroke-miterlimit:2.818;stroke-dasharray:none;stroke-opacity:1"
             id="path70" />
        </g>
        <g
           id="g72"
           transform="matrix(0.36,0,0,-0.36,0,841.89)">
          <path
             d="m 1616.958,1204.974 c -18.652,3.733 -36.745,-8.634 -40.412,-27.623 -1.971,-10.204 0.612,-20.772 7.05,-28.845"
             style="fill:none;stroke:#000000;stroke-width:1;stroke-linecap:round;stroke-linejoin:miter;stroke-miterlimit:2.818;stroke-dasharray:none;stroke-opacity:1"
             id="path74" />
        </g>
        <g
           id="g76"
           transform="matrix(0.36,0,0,-0.36,0,841.89)">
          <path
             d="m 1737.323,1269.92 c 6.501,-10.385 5.682,-23.852 -2.027,-33.341"
             style="fill:none;stroke:#000000;stroke-width:1;stroke-linecap:round;stroke-linejoin:miter;stroke-miterlimit:2.818;stroke-dasharray:none;stroke-opacity:1"
             id="path78" />
        </g>
        <g
           id="g80"
           transform="matrix(0.36,0,0,-0.36,0,841.89)">
          <path
             d="m 1583.596,1148.506 4.394,-4.598"
             style="fill:none;stroke:#000000;stroke-width:1;stroke-linecap:round;stroke-linejoin:miter;stroke-miterlimit:2.818;stroke-dasharray:none;stroke-opacity:1"
             id="path82" />
        </g>
        <g
           id="g84"
           transform="matrix(0.36,0,0,-0.36,0,841.89)">
          <path
             d="M 2008.958,1124.693 V 1322.74"
             style="fill:none;stroke:#000000;stroke-width:1;stroke-linecap:round;stroke-linejoin:miter;stroke-miterlimit:2.818;stroke-dasharray:none;stroke-opacity:1"
             id="path86" />
        </g>
        <g
           id="g88"
           transform="matrix(0.36,0,0,-0.36,0,841.89)">
          <path
             d="m 2013.217,1096.859 c 0,-2.352 -1.906,-4.259 -4.259,-4.259 -2.352,0 -4.259,1.907 -4.259,4.259 0,2.353 1.907,4.259 4.259,4.259 2.353,0 4.259,-1.906 4.259,-4.259 z"
             style="fill:none;stroke:#000000;stroke-width:1;stroke-linecap:round;stroke-linejoin:miter;stroke-miterlimit:2.818;stroke-dasharray:none;stroke-opacity:1"
             id="path90" />
        </g>
        <g
           id="g92"
           transform="matrix(0.36,0,0,-0.36,0,841.89)">
          <path
             d="M 2052.785,925.6454 V 1321.74"
             style="fill:none;stroke:#000000;stroke-width:1;stroke-linecap:round;stroke-linejoin:miter;stroke-miterlimit:2.818;stroke-dasharray:none;stroke-opacity:1"
             id="path94" />
        </g>
        <g
           id="g96"
           transform="matrix(0.36,0,0,-0.36,0,841.89)">
          <path
             d="M 2043.336,925.6454 V 1321.74"
             style="fill:none;stroke:#000000;stroke-width:1;stroke-linecap:round;stroke-linejoin:miter;stroke-miterlimit:2.818;stroke-dasharray:none;stroke-opacity:1"
             id="path98" />
        </g>
        <g
           id="g100"
           transform="matrix(0.36,0,0,-0.36,0,841.89)">
          <path
             d="m 2043.336,1321.74 h 99.024"
             style="fill:none;stroke:#000000;stroke-width:1;stroke-linecap:round;stroke-linejoin:miter;stroke-miterlimit:2.818;stroke-dasharray:none;stroke-opacity:1"
             id="path102" />
        </g>
        <g
           id="g104"
           transform="matrix(0.36,0,0,-0.36,0,841.89)">
          <path
             d="m 2043.336,925.6454 h 9.449"
             style="fill:none;stroke:#000000;stroke-width:1;stroke-linecap:round;stroke-linejoin:miter;stroke-miterlimit:2.818;stroke-dasharray:none;stroke-opacity:1"
             id="path106" />
        </g>
        <g
           id="g108"
           transform="matrix(0.36,0,0,-0.36,0,841.89)">
          <path
             d="m 833.5594,1285.558 c -34.3693,42.54 -96.7167,49.164 -139.2568,14.794 -42.5402,-34.369 -49.1639,-96.717 -14.7946,-139.257 34.3693,-42.54 96.7167,-49.164 139.2568,-14.794 5.5446,4.479 10.5893,9.545 15.0464,15.107"
             style="fill:none;stroke:#000000;stroke-width:1;stroke-linecap:round;stroke-linejoin:miter;stroke-miterlimit:2.818;stroke-dasharray:none;stroke-opacity:1"
             id="path110" />
        </g>
        <g
           id="g112"
           transform="matrix(0.36,0,0,-0.36,0,841.89)">
          <path
             d="M 833.2329,1161.871 V 1322.35"
             style="fill:none;stroke:#000000;stroke-width:1;stroke-linecap:round;stroke-linejoin:miter;stroke-miterlimit:2.818;stroke-dasharray:none;stroke-opacity:1"
             id="path114" />
        </g>
        <g
           id="g116"
           transform="matrix(0.36,0,0,-0.36,0,841.89)">
          <path
             d="m 833.2329,1124.303 v 36.108"
             style="fill:none;stroke:#000000;stroke-width:1;stroke-linecap:round;stroke-linejoin:miter;stroke-miterlimit:2.818;stroke-dasharray:none;stroke-opacity:1"
             id="path118" />
        </g>
        <g
           id="g120"
           transform="matrix(0.36,0,0,-0.36,0,841.89)">
          <path
             d="m 1325.116,1285.558 c -34.37,42.54 -96.717,49.164 -139.257,14.794 -42.54,-34.369 -49.164,-96.717 -14.795,-139.257 34.369,-42.54 96.717,-49.164 139.257,-14.794 5.545,4.479 10.589,9.545 15.046,15.107"
             style="fill:none;stroke:#000000;stroke-width:1;stroke-linecap:round;stroke-linejoin:miter;stroke-miterlimit:2.818;stroke-dasharray:none;stroke-opacity:1"
             id="path122" />
        </g>
        <g
           id="g124"
           transform="matrix(0.36,0,0,-0.36,0,841.89)">
          <path
             d="M 1324.789,1161.871 V 1322.35"
             style="fill:none;stroke:#000000;stroke-width:1;stroke-linecap:round;stroke-linejoin:miter;stroke-miterlimit:2.818;stroke-dasharray:none;stroke-opacity:1"
             id="path126" />
        </g>
        <g
           id="g128"
           transform="matrix(0.36,0,0,-0.36,0,841.89)">
          <path
             d="m 1324.789,1124.303 v 36.108"
             style="fill:none;stroke:#000000;stroke-width:1;stroke-linecap:round;stroke-linejoin:miter;stroke-miterlimit:2.818;stroke-dasharray:none;stroke-opacity:1"
             id="path130" />
        </g>
        <g
           id="g132"
           transform="matrix(0.36,0,0,-0.36,0,841.89)">
          <path
             d="M 420.8238,629.1612 V 1025.256"
             style="fill:none;stroke:#000000;stroke-width:1;stroke-linecap:round;stroke-linejoin:miter;stroke-miterlimit:2.818;stroke-dasharray:none;stroke-opacity:1"
             id="path134" />
        </g>
        <g
           id="g136"
           transform="matrix(0.36,0,0,-0.36,0,841.89)">
          <path
             d="M 411.375,629.1612 V 1025.256"
             style="fill:none;stroke:#000000;stroke-width:1;stroke-linecap:round;stroke-linejoin:miter;stroke-miterlimit:2.818;stroke-dasharray:none;stroke-opacity:1"
             id="path138" />
        </g>
        <g
           id="g140"
           transform="matrix(0.36,0,0,-0.36,0,841.89)">
          <path
             d="m 411.375,1025.256 h 99.0236"
             style="fill:none;stroke:#000000;stroke-width:1;stroke-linecap:round;stroke-linejoin:miter;stroke-miterlimit:2.818;stroke-dasharray:none;stroke-opacity:1"
             id="path142" />
        </g>
        <g
           id="g144"
           transform="matrix(0.36,0,0,-0.36,0,841.89)">
          <path
             d="m 411.375,629.1612 h 9.4488"
             style="fill:none;stroke:#000000;stroke-width:1;stroke-linecap:round;stroke-linejoin:miter;stroke-miterlimit:2.818;stroke-dasharray:none;stroke-opacity:1"
             id="path146" />
        </g>
        <g
           id="g148"
           transform="matrix(0.36,0,0,-0.36,0,841.89)">
          <path
             d="m 510.375,926.2556 c 0,-54.6762 44.3238,-99 99,-99 54.6762,0 99,44.3238 99,99 0,0 0,0 0,0"
             style="fill:none;stroke:#000000;stroke-width:1;stroke-linecap:round;stroke-linejoin:miter;stroke-miterlimit:2.818;stroke-dasharray:none;stroke-opacity:1"
             id="path150" />
        </g>
        <g
           id="g152"
           transform="matrix(0.36,0,0,-0.36,0,841.89)">
          <path
             d="m 517.3125,962.3259 c 19.6476,50.7311 76.7006,75.9291 127.4316,56.2811 25.842,-10.008 46.2729,-30.4391 56.2813,-56.2811"
             style="fill:none;stroke:#000000;stroke-width:1;stroke-linecap:round;stroke-linejoin:miter;stroke-miterlimit:2.818;stroke-dasharray:none;stroke-opacity:1"
             id="path154" />
        </g>
        <g
           id="g156"
           transform="matrix(0.36,0,0,-0.36,0,841.89)">
          <path
             d="m 510.375,926.2556 h 198"
             style="fill:none;stroke:#000000;stroke-width:1;stroke-linecap:round;stroke-linejoin:miter;stroke-miterlimit:2.818;stroke-dasharray:none;stroke-opacity:1"
             id="path158" />
        </g>
        <g
           id="g160"
           transform="matrix(0.36,0,0,-0.36,0,841.89)">
          <path
             d="m 510.375,926.2556 c 0.1651,54.5623 44.5305,98.6604 99.093,98.4944 40.4146,-0.122 76.6794,-24.8475 91.5574,-62.4241"
             style="fill:none;stroke:#000000;stroke-width:1;stroke-linecap:round;stroke-linejoin:miter;stroke-miterlimit:2.818;stroke-dasharray:none;stroke-opacity:1"
             id="path162" />
        </g>
        <g
           id="g164"
           transform="matrix(0.36,0,0,-0.36,0,841.89)">
          <path
             d="M 1104.552,945.1533 V 1322.35"
             style="fill:none;stroke:#000000;stroke-width:1;stroke-linecap:round;stroke-linejoin:miter;stroke-miterlimit:2.818;stroke-dasharray:none;stroke-opacity:1"
             id="path166" />
        </g>
        <g
           id="g168"
           transform="matrix(0.36,0,0,-0.36,0,841.89)">
          <path
             d="M 1114,926.2556 V 1322.35"
             style="fill:none;stroke:#000000;stroke-width:1;stroke-linecap:round;stroke-linejoin:miter;stroke-miterlimit:2.818;stroke-dasharray:none;stroke-opacity:1"
             id="path170" />
        </g>
        <g
           id="g172"
           transform="matrix(0.36,0,0,-0.36,0,841.89)">
          <path
             d="M 925.402,945.1533 V 1322.35"
             style="fill:none;stroke:#000000;stroke-width:1;stroke-linecap:round;stroke-linejoin:miter;stroke-miterlimit:2.818;stroke-dasharray:none;stroke-opacity:1"
             id="path174" />
        </g>
        <g
           id="g176"
           transform="matrix(0.36,0,0,-0.36,0,841.89)">
          <path
             d="M 915.9531,926.2556 V 1322.35"
             style="fill:none;stroke:#000000;stroke-width:1;stroke-linecap:round;stroke-linejoin:miter;stroke-miterlimit:2.818;stroke-dasharray:none;stroke-opacity:1"
             id="path178" />
        </g>
        <g
           id="g180"
           transform="matrix(0.36,0,0,-0.36,0,841.89)">
          <path
             d="m 915.9531,926.2556 9.4489,18.8977"
             style="fill:none;stroke:#000000;stroke-width:1;stroke-linecap:round;stroke-linejoin:miter;stroke-miterlimit:2.818;stroke-dasharray:none;stroke-opacity:1"
             id="path182" />
        </g>
        <g
           id="g184"
           transform="matrix(0.36,0,0,-0.36,0,841.89)">
          <path
             d="m 925.402,945.1533 89.575,179.1497"
             style="fill:none;stroke:#000000;stroke-width:1;stroke-linecap:round;stroke-linejoin:miter;stroke-miterlimit:2.818;stroke-dasharray:none;stroke-opacity:1"
             id="path186" />
        </g>
        <g
           id="g188"
           transform="matrix(0.36,0,0,-0.36,0,841.89)">
          <path
             d="m 1014.977,1124.303 89.575,-179.1497"
             style="fill:none;stroke:#000000;stroke-width:1;stroke-linecap:round;stroke-linejoin:miter;stroke-miterlimit:2.818;stroke-dasharray:none;stroke-opacity:1"
             id="path190" />
        </g>
        <g
           id="g192"
           transform="matrix(0.36,0,0,-0.36,0,841.89)">
          <path
             d="M 1104.552,945.1533 1114,926.2556"
             style="fill:none;stroke:#000000;stroke-width:1;stroke-linecap:round;stroke-linejoin:miter;stroke-miterlimit:2.818;stroke-dasharray:none;stroke-opacity:1"
             id="path194" />
        </g>
        <g
           id="g196"
           transform="matrix(0.36,0,0,-0.36,0,841.89)">
          <path
             d="m 915.9531,1322.35 h 9.4489"
             style="fill:none;stroke:#000000;stroke-width:1;stroke-linecap:round;stroke-linejoin:miter;stroke-miterlimit:2.818;stroke-dasharray:none;stroke-opacity:1"
             id="path198" />
        </g>
        <g
           id="g200"
           transform="matrix(0.36,0,0,-0.36,0,841.89)">
          <path
             d="M 1104.552,1322.35 H 1114"
             style="fill:none;stroke:#000000;stroke-width:1;stroke-linecap:round;stroke-linejoin:miter;stroke-miterlimit:2.818;stroke-dasharray:none;stroke-opacity:1"
             id="path202" />
        </g>
        <g
           id="g204"
           transform="matrix(0.36,0,0,-0.36,0,841.89)">
          <path
             d="m 833.2329,1124.303 -66.9603,-64.481"
             style="fill:none;stroke:#000000;stroke-width:1;stroke-linecap:round;stroke-linejoin:miter;stroke-miterlimit:2.818;stroke-dasharray:none;stroke-opacity:1"
             id="path206" />
        </g>
        <g
           id="g208"
           transform="matrix(0.36,0,0,-0.36,0,841.89)">
          <path
             d="m 770.2726,530.1611 -18.8975,37.0887"
             style="fill:none;stroke:#000000;stroke-width:8;stroke-linecap:round;stroke-linejoin:miter;stroke-miterlimit:2.818;stroke-dasharray:none;stroke-opacity:1"
             id="path210" />
        </g>
        <g
           id="g212"
           transform="matrix(0.36,0,0,-0.36,0,841.89)">
          <path
             d="m 751.3751,567.2498 -36.1819,71.0107"
             style="fill:none;stroke:#000000;stroke-width:8;stroke-linecap:round;stroke-linejoin:miter;stroke-miterlimit:2.818;stroke-dasharray:none;stroke-opacity:1"
             id="path214" />
        </g>
        <g
           id="g216"
           transform="matrix(0.36,0,0,-0.36,0,841.89)">
          <path
             d="m 818.3353,925.9565 h 18.8976"
             style="fill:none;stroke:#000000;stroke-width:8;stroke-linecap:round;stroke-linejoin:miter;stroke-miterlimit:2.818;stroke-dasharray:none;stroke-opacity:1"
             id="path218" />
        </g>
        <g
           id="g220"
           transform="matrix(0.36,0,0,-0.36,0,841.89)">
          <path
             d="M 837.2329,529.8621 V 925.9565"
             style="fill:none;stroke:#000000;stroke-width:8;stroke-linecap:round;stroke-linejoin:miter;stroke-miterlimit:2.818;stroke-dasharray:none;stroke-opacity:1"
             id="path222" />
        </g>
        <g
           id="g224"
           transform="matrix(0.36,0,0,-0.36,0,841.89)">
          <path
             d="M 818.3353,566.9507 V 925.9565"
             style="fill:none;stroke:#000000;stroke-width:8;stroke-linecap:round;stroke-linejoin:miter;stroke-miterlimit:2.818;stroke-dasharray:none;stroke-opacity:1"
             id="path226" />
        </g>
        <g
           id="g228"
           transform="matrix(0.36,0,0,-0.36,0,841.89)">
          <path
             d="m 837.2329,529.8621 -18.8976,37.0886"
             style="fill:none;stroke:#000000;stroke-width:8;stroke-linecap:round;stroke-linejoin:miter;stroke-miterlimit:2.818;stroke-dasharray:none;stroke-opacity:1"
             id="path230" />
        </g>
        <g
           id="g232"
           transform="matrix(0.36,0,0,-0.36,0,841.89)">
          <path
             d="m 818.3353,566.9507 -36.1817,71.0107"
             style="fill:none;stroke:#000000;stroke-width:8;stroke-linecap:round;stroke-linejoin:miter;stroke-miterlimit:2.818;stroke-dasharray:none;stroke-opacity:1"
             id="path234" />
        </g>
        <g
           id="g236"
           transform="matrix(0.36,0,0,-0.36,0,841.89)">
          <path
             d="M 770.2726,530.1611 V 926.2556"
             style="fill:none;stroke:#000000;stroke-width:8;stroke-linecap:round;stroke-linejoin:miter;stroke-miterlimit:2.818;stroke-dasharray:none;stroke-opacity:1"
             id="path238" />
        </g>
        <g
           id="g240"
           transform="matrix(0.36,0,0,-0.36,0,841.89)">
          <path
             d="M 751.3751,567.2498 V 926.2556"
             style="fill:none;stroke:#000000;stroke-width:8;stroke-linecap:round;stroke-linejoin:miter;stroke-miterlimit:2.818;stroke-dasharray:none;stroke-opacity:1"
             id="path242" />
        </g>
        <g
           id="g244"
           transform="matrix(0.36,0,0,-0.36,0,841.89)">
          <path
             d="m 751.3751,926.2556 h 18.8975"
             style="fill:none;stroke:#000000;stroke-width:8;stroke-linecap:round;stroke-linejoin:miter;stroke-miterlimit:2.818;stroke-dasharray:none;stroke-opacity:1"
             id="path246" />
        </g>
        <g
           id="g248"
           transform="matrix(0.36,0,0,-0.36,0,841.89)">
          <path
             d="M 2186.187,925.6454 V 1321.74"
             style="fill:none;stroke:#000000;stroke-width:1;stroke-linecap:round;stroke-linejoin:miter;stroke-miterlimit:2.818;stroke-dasharray:none;stroke-opacity:1"
             id="path250" />
        </g>
        <g
           id="g252"
           transform="matrix(0.36,0,0,-0.36,0,841.89)">
          <path
             d="M 2176.738,925.6454 V 1321.74"
             style="fill:none;stroke:#000000;stroke-width:1;stroke-linecap:round;stroke-linejoin:miter;stroke-miterlimit:2.818;stroke-dasharray:none;stroke-opacity:1"
             id="path254" />
        </g>
        <g
           id="g256"
           transform="matrix(0.36,0,0,-0.36,0,841.89)">
          <path
             d="m 2176.738,1321.74 h 99.023"
             style="fill:none;stroke:#000000;stroke-width:1;stroke-linecap:round;stroke-linejoin:miter;stroke-miterlimit:2.818;stroke-dasharray:none;stroke-opacity:1"
             id="path258" />
        </g>
        <g
           id="g260"
           transform="matrix(0.36,0,0,-0.36,0,841.89)">
          <path
             d="m 2176.738,925.6454 h 9.449"
             style="fill:none;stroke:#000000;stroke-width:1;stroke-linecap:round;stroke-linejoin:miter;stroke-miterlimit:2.818;stroke-dasharray:none;stroke-opacity:1"
             id="path262" />
        </g>
        <g
           id="g264"
           transform="matrix(0.36,0,0,-0.36,0,841.89)">
          <path
             d="m 2300.139,1232.587 c 0,-49.731 44.324,-90.046 99,-90.046 54.676,0 99,40.315 99,90.046 0,0 0,0 0,0"
             style="fill:none;stroke:#000000;stroke-width:1;stroke-linecap:round;stroke-linejoin:miter;stroke-miterlimit:2.818;stroke-dasharray:none;stroke-opacity:1"
             id="path266" />
        </g>
        <g
           id="g268"
           transform="matrix(0.36,0,0,-0.36,0,841.89)">
          <path
             d="m 2307.077,1265.395 c 19.647,46.143 76.7,69.062 127.431,51.191 25.842,-9.103 46.273,-27.686 56.282,-51.191"
             style="fill:none;stroke:#000000;stroke-width:1;stroke-linecap:round;stroke-linejoin:miter;stroke-miterlimit:2.818;stroke-dasharray:none;stroke-opacity:1"
             id="path270" />
        </g>
        <g
           id="g272"
           transform="matrix(0.36,0,0,-0.36,0,841.89)">
          <path
             d="m 2300.139,1232.587 h 198"
             style="fill:none;stroke:#000000;stroke-width:1;stroke-linecap:round;stroke-linejoin:miter;stroke-miterlimit:2.818;stroke-dasharray:none;stroke-opacity:1"
             id="path274" />
        </g>
        <g
           id="g276"
           transform="matrix(0.36,0,0,-0.36,0,841.89)">
          <path
             d="m 2300.139,1232.587 c 0.165,49.628 44.531,89.737 99.093,89.587 40.415,-0.111 76.68,-22.601 91.558,-56.779"
             style="fill:none;stroke:#000000;stroke-width:1;stroke-linecap:round;stroke-linejoin:miter;stroke-miterlimit:2.818;stroke-dasharray:none;stroke-opacity:1"
             id="path278" />
        </g>
        <g
           id="g280"
           transform="matrix(0.36,0,0,-0.36,0,841.89)">
          <path
             d="M 1115.27,828.0498 C 1063.076,765.1393 992.1165,720.5862 912.7766,700.9107"
             style="fill:none;stroke:#000000;stroke-width:1;stroke-linecap:round;stroke-linejoin:miter;stroke-miterlimit:2.818;stroke-dasharray:none;stroke-opacity:1"
             id="path282" />
        </g>
        <!-- <g
           id="g284"
           transform="matrix(0.36,0,0,-0.36,0,841.89)">
          <path
             d="m 449.6034,1166.938 c 52.1538,204.91 260.5449,328.743 465.4545,276.589 51.5257,-13.114 99.7551,-36.817 141.6151,-69.598"
             style="fill:none;stroke:#000000;stroke-width:5;stroke-linecap:round;stroke-linejoin:miter;stroke-miterlimit:2.818;stroke-dasharray:none;stroke-opacity:1"
             id="path286" />
        </g>
        <g
           id="g288"
           transform="matrix(0.36,0,0,-0.36,0,841.89)">
          <path
             d="m 708.375,926.2556 h 43.0001"
             style="fill:none;stroke:#000000;stroke-width:1;stroke-linecap:round;stroke-linejoin:miter;stroke-miterlimit:2.818;stroke-dasharray:none;stroke-opacity:1"
             id="path290" />
        </g>
        <g
           id="g292"
           transform="matrix(0.36,0,0,-0.36,0,841.89)">
          <path
             d="m 1056.673,1373.929 47.879,1.811"
             style="fill:none;stroke:#000000;stroke-width:5;stroke-linecap:round;stroke-linejoin:miter;stroke-miterlimit:2.818;stroke-dasharray:none;stroke-opacity:1"
             id="path294" />
        </g> -->
        <!-- <g
           id="g296"
           transform="matrix(0.36,0,0,-0.36,0,841.89)">
          <path
             d="m 1104.552,1375.74 72.198,84.51"
             style="fill:none;stroke:#000000;stroke-width:5;stroke-linecap:round;stroke-linejoin:miter;stroke-miterlimit:2.818;stroke-dasharray:none;stroke-opacity:1"
             id="path298" />
        </g>
        <g
           id="g300"
           transform="matrix(0.36,0,0,-0.36,0,841.89)">
          <path
             d="m 1176.75,1460.25 h 71.34"
             style="fill:none;stroke:#000000;stroke-width:5;stroke-linecap:round;stroke-linejoin:miter;stroke-miterlimit:2.818;stroke-dasharray:none;stroke-opacity:1"
             id="path302" />
        </g>
        <g
           id="g304"
           transform="matrix(0.36,0,0,-0.36,0,841.89)">
          <path
             d="m 1248.09,1460.25 110.499,-110.321"
             style="fill:none;stroke:#000000;stroke-width:5;stroke-linecap:round;stroke-linejoin:miter;stroke-miterlimit:2.818;stroke-dasharray:none;stroke-opacity:1"
             id="path306" />
        </g>
        <g
           id="g308"
           transform="matrix(0.36,0,0,-0.36,0,841.89)">
          <path
             d="m 1358.589,1349.929 176.298,55.16"
             style="fill:none;stroke:#000000;stroke-width:5;stroke-linecap:round;stroke-linejoin:miter;stroke-miterlimit:2.818;stroke-dasharray:none;stroke-opacity:1"
             id="path310" />
        </g> -->
        <!-- <g
           id="g312"
           transform="matrix(0.36,0,0,-0.36,0,841.89)">
          <path
             d="m 1534.887,1405.089 115.931,-53.349"
             style="fill:none;stroke:#000000;stroke-width:5;stroke-linecap:round;stroke-linejoin:miter;stroke-miterlimit:2.818;stroke-dasharray:none;stroke-opacity:1"
             id="path314" />
        </g>
        <g
           id="g316"
           transform="matrix(0.36,0,0,-0.36,0,841.89)">
          <path
             d="m 1776.58,1351.74 98.794,53.349"
             style="fill:none;stroke:#000000;stroke-width:5;stroke-linecap:round;stroke-linejoin:miter;stroke-miterlimit:2.818;stroke-dasharray:none;stroke-opacity:1"
             id="path318" />
        </g>
        <g
           id="g320"
           transform="matrix(0.36,0,0,-0.36,0,841.89)">
          <path
             d="m 1875.374,1405.089 91.857,-53.349"
             style="fill:none;stroke:#000000;stroke-width:5;stroke-linecap:round;stroke-linejoin:miter;stroke-miterlimit:2.818;stroke-dasharray:none;stroke-opacity:1"
             id="path322" />
        </g>
        <g
           id="g324"
           transform="matrix(0.36,0,0,-0.36,0,841.89)">
          <path
             d="m 2275.761,1351.74 99.723,53.349"
             style="fill:none;stroke:#000000;stroke-width:5;stroke-linecap:round;stroke-linejoin:miter;stroke-miterlimit:2.818;stroke-dasharray:none;stroke-opacity:1"
             id="path326" />
        </g> -->
        <!-- <g
           id="g328"
           transform="matrix(0.36,0,0,-0.36,0,841.89)">
          <path
             d="m 2375.484,1405.089 62.655,-53.349"
             style="fill:none;stroke:#000000;stroke-width:5;stroke-linecap:round;stroke-linejoin:miter;stroke-miterlimit:2.818;stroke-dasharray:none;stroke-opacity:1"
             id="path330" />
        </g>
        <g
           id="g332"
           transform="matrix(0.36,0,0,-0.36,0,841.89)">
          <path
             d="m 2438.139,1351.74 52.651,53.349"
             style="fill:none;stroke:#000000;stroke-width:5;stroke-linecap:round;stroke-linejoin:miter;stroke-miterlimit:2.818;stroke-dasharray:none;stroke-opacity:1"
             id="path334" />
        </g>
        <g
           id="g336"
           transform="matrix(0.36,0,0,-0.36,0,841.89)">
          <path
             d="m 2490.79,1405.089 235.319,-234.498"
             style="fill:none;stroke:#000000;stroke-width:5;stroke-linecap:round;stroke-linejoin:miter;stroke-miterlimit:2.818;stroke-dasharray:none;stroke-opacity:1"
             id="path338" />
        </g> -->
        <!-- <g
           id="g340"
           transform="matrix(0.36,0,0,-0.36,0,841.89)">
          <path
             d="M 1650.818,1351.74 H 1776.58"
             style="fill:none;stroke:#000000;stroke-width:5;stroke-linecap:round;stroke-linejoin:miter;stroke-miterlimit:2.818;stroke-dasharray:none;stroke-opacity:1"
             id="path342" />
        </g>
        <g
           id="g344"
           transform="matrix(0.36,0,0,-0.36,0,841.89)">
          <path
             d="m 1967.231,1351.74 h 308.53"
             style="fill:none;stroke:#000000;stroke-width:5;stroke-linecap:round;stroke-linejoin:miter;stroke-miterlimit:2.818;stroke-dasharray:none;stroke-opacity:1"
             id="path346" />
        </g> -->
      </g>
    </g>
  </g>
</svg>
