<?xml version="1.0" encoding="UTF-8" standalone="no"?>
<svg
   version="1.1"
   id="svg2"
   width="1587.4"
   height="1122.52"
   viewBox="0 0 1587.4 1122.52"
   xmlns="http://www.w3.org/2000/svg"
   xmlns:svg="http://www.w3.org/2000/svg">
  <defs
     id="defs6">
    <clipPath
       clipPathUnits="userSpaceOnUse"
       id="clipPath18">
      <path
         d="M 0,0.2099707 H 1190.52 V 841.89007 H 0 Z"
         id="path16" />
    </clipPath>
  </defs>
  <g
     id="g8"
     transform="matrix(1.3333333,0,0,-1.3333333,0,1122.52)">
    <g
       id="g12">
      <g
         id="g14"
         clip-path="url(#clipPath18)">

        <g
           id="g132"
           transform="matrix(0.36,0,0,-0.36,0,841.89)">
          <path
             d="M 420.8238,629.1612 V 1025.256"
             style="fill:none;stroke:#000000;stroke-width:1;stroke-linecap:round;stroke-linejoin:miter;stroke-miterlimit:2.818;stroke-dasharray:none;stroke-opacity:1"
             id="path134" />
        </g>
        <g
           id="g136"
           transform="matrix(0.36,0,0,-0.36,0,841.89)">
          <path
             d="M 411.375,629.1612 V 1025.256"
             style="fill:none;stroke:#000000;stroke-width:1;stroke-linecap:round;stroke-linejoin:miter;stroke-miterlimit:2.818;stroke-dasharray:none;stroke-opacity:1"
             id="path138" />
        </g>
        <g
           id="g140"
           transform="matrix(0.36,0,0,-0.36,0,841.89)">
          <path
             d="m 411.375,1025.256 h 99.0236"
             style="fill:none;stroke:#000000;stroke-width:1;stroke-linecap:round;stroke-linejoin:miter;stroke-miterlimit:2.818;stroke-dasharray:none;stroke-opacity:1"
             id="path142" />
        </g>
        <g
           id="g144"
           transform="matrix(0.36,0,0,-0.36,0,841.89)">
          <path
             d="m 411.375,629.1612 h 9.4488"
             style="fill:none;stroke:#000000;stroke-width:1;stroke-linecap:round;stroke-linejoin:miter;stroke-miterlimit:2.818;stroke-dasharray:none;stroke-opacity:1"
             id="path146" />
        </g>
        <g
           id="g148"
           transform="matrix(0.36,0,0,-0.36,0,841.89)">
          <path
             d="m 510.375,926.2556 c 0,-54.6762 44.3238,-99 99,-99 54.6762,0 99,44.3238 99,99 0,0 0,0 0,0"
             style="fill:none;stroke:#000000;stroke-width:1;stroke-linecap:round;stroke-linejoin:miter;stroke-miterlimit:2.818;stroke-dasharray:none;stroke-opacity:1"
             id="path150" />
        </g>
        <g
           id="g152"
           transform="matrix(0.36,0,0,-0.36,0,841.89)">
          <path
             d="m 517.3125,962.3259 c 19.6476,50.7311 76.7006,75.9291 127.4316,56.2811 25.842,-10.008 46.2729,-30.4391 56.2813,-56.2811"
             style="fill:none;stroke:#000000;stroke-width:1;stroke-linecap:round;stroke-linejoin:miter;stroke-miterlimit:2.818;stroke-dasharray:none;stroke-opacity:1"
             id="path154" />
        </g>
        <g
           id="g156"
           transform="matrix(0.36,0,0,-0.36,0,841.89)">
          <path
             d="m 510.375,926.2556 h 198"
             style="fill:none;stroke:#000000;stroke-width:1;stroke-linecap:round;stroke-linejoin:miter;stroke-miterlimit:2.818;stroke-dasharray:none;stroke-opacity:1"
             id="path158" />
        </g>
        <g
           id="g160"
           transform="matrix(0.36,0,0,-0.36,0,841.89)">
          <path
             d="m 510.375,926.2556 c 0.1651,54.5623 44.5305,98.6604 99.093,98.4944 40.4146,-0.122 76.6794,-24.8475 91.5574,-62.4241"
             style="fill:none;stroke:#000000;stroke-width:1;stroke-linecap:round;stroke-linejoin:miter;stroke-miterlimit:2.818;stroke-dasharray:none;stroke-opacity:1"
             id="path162" />
        </g>
      </g>
    </g>
  </g>
</svg>
