<?xml version="1.0" encoding="UTF-8" standalone="no"?>
<svg
   version="1.1"
   id="svg2"
   width="1587.4"
   height="1122.52"
   viewBox="0 0 1587.4 1122.52"
   xmlns="http://www.w3.org/2000/svg"
   xmlns:svg="http://www.w3.org/2000/svg">
  <defs
     id="defs6">
    <clipPath
       clipPathUnits="userSpaceOnUse"
       id="clipPath18">
      <path
         d="M 0,0.2099707 H 1190.52 V 841.89007 H 0 Z"
         id="path16" />
    </clipPath>
  </defs>
  <g
     id="g8"
     transform="matrix(1.3333333,0,0,-1.3333333,0,1122.52)">
    <g
       id="g10" />
    <g
       id="g12">
      <g
         id="g14"
         clip-path="url(#clipPath18)">
        <g
           id="g100"
           transform="matrix(0.36,0,0,-0.36,0,841.89)">
          <path
             d="m 2043.336,1321.74 h 99.024"
             style="fill:none;stroke:#000000;stroke-width:1;stroke-linecap:round;stroke-linejoin:miter;stroke-miterlimit:2.818;stroke-dasharray:none;stroke-opacity:1"
             id="path102" />
        </g>
        <g
           id="g104"
           transform="matrix(0.36,0,0,-0.36,0,841.89)">
          <path
             d="m 2043.336,925.6454 h 9.449"
             style="fill:none;stroke:#000000;stroke-width:1;stroke-linecap:round;stroke-linejoin:miter;stroke-miterlimit:2.818;stroke-dasharray:none;stroke-opacity:1"
             id="path106" />
        </g>
        <g
           id="g108"
           transform="matrix(0.36,0,0,-0.36,0,841.89)">
          <path
             d="m 833.5594,1285.558 c -34.3693,42.54 -96.7167,49.164 -139.2568,14.794 -42.5402,-34.369 -49.1639,-96.717 -14.7946,-139.257 34.3693,-42.54 96.7167,-49.164 139.2568,-14.794 5.5446,4.479 10.5893,9.545 15.0464,15.107"
             style="fill:none;stroke:#000000;stroke-width:1;stroke-linecap:round;stroke-linejoin:miter;stroke-miterlimit:2.818;stroke-dasharray:none;stroke-opacity:1"
             id="path110" />
        </g>
        <g
           id="g112"
           transform="matrix(0.36,0,0,-0.36,0,841.89)">
          <path
             d="M 833.2329,1161.871 V 1322.35"
             style="fill:none;stroke:#000000;stroke-width:1;stroke-linecap:round;stroke-linejoin:miter;stroke-miterlimit:2.818;stroke-dasharray:none;stroke-opacity:1"
             id="path114" />
        </g>
        <g
           id="g128"
           transform="matrix(0.36,0,0,-0.36,0,841.89)">
          <path
             d="m 1324.789,1124.303 v 36.108"
             style="fill:none;stroke:#000000;stroke-width:1;stroke-linecap:round;stroke-linejoin:miter;stroke-miterlimit:2.818;stroke-dasharray:none;stroke-opacity:1"
             id="path130" />
        </g>
        <g
           id="g200"
           transform="matrix(0.36,0,0,-0.36,0,841.89)">
          <path
             d="M 1104.552,1322.35 H 1114"
             style="fill:none;stroke:#000000;stroke-width:1;stroke-linecap:round;stroke-linejoin:miter;stroke-miterlimit:2.818;stroke-dasharray:none;stroke-opacity:1"
             id="path202" />
        </g>
        <g
           id="g204"
           transform="matrix(0.36,0,0,-0.36,0,841.89)">
          <path
             d="m 833.2329,1124.303 -66.9603,-64.481"
             style="fill:none;stroke:#000000;stroke-width:1;stroke-linecap:round;stroke-linejoin:miter;stroke-miterlimit:2.818;stroke-dasharray:none;stroke-opacity:1"
             id="path206" />
        </g>
      </g>
    </g>
  </g>
</svg>
