<?xml version="1.0" encoding="UTF-8" standalone="no"?>
<!-- Created with Inkscape (http://www.inkscape.org/) -->

<svg
   version="1.1"
   id="svg2"
   width="1587.4"
   height="1122.52"
   viewBox="0 0 1587.4 1122.52"
   xmlns="http://www.w3.org/2000/svg"
   xmlns:svg="http://www.w3.org/2000/svg">
  <defs
     id="defs6">
    <clipPath
       clipPathUnits="userSpaceOnUse"
       id="clipPath18">
      <path
         d="M 0,0.2099707 H 1190.52 V 841.89007 H 0 Z"
         id="path16" />
    </clipPath>
  </defs>
  <g
     id="g8"
     transform="matrix(1.3333333,0,0,-1.3333333,0,1122.52)">
    <g
       id="g10" />
    <g
       id="g12">
      <g
         id="g14"
         clip-path="url(#clipPath18)">
        <g
           id="g20"
           transform="matrix(0.36,0,0,-0.36,0,841.89)">
          <path
             d="m 1300.574,901.411 v 396.095"
             style="fill:none;stroke:#000000;stroke-width:1;stroke-linecap:round;stroke-linejoin:miter;stroke-miterlimit:2.818;stroke-dasharray:none;stroke-opacity:1"
             id="path22" />
        </g>
        <g
           id="g24"
           transform="matrix(0.36,0,0,-0.36,0,841.89)">
          <path
             d="m 1291.125,901.411 v 396.095"
             style="fill:none;stroke:#000000;stroke-width:1;stroke-linecap:round;stroke-linejoin:miter;stroke-miterlimit:2.818;stroke-dasharray:none;stroke-opacity:1"
             id="path26" />
        </g>
        <g
           id="g28"
           transform="matrix(0.36,0,0,-0.36,0,841.89)">
          <path
             d="m 1291.125,1297.506 h 99.024"
             style="fill:none;stroke:#000000;stroke-width:1;stroke-linecap:round;stroke-linejoin:miter;stroke-miterlimit:2.818;stroke-dasharray:none;stroke-opacity:1"
             id="path30" />
        </g>
        <g
           id="g32"
           transform="matrix(0.36,0,0,-0.36,0,841.89)">
          <path
             d="m 1291.125,901.411 h 9.449"
             style="fill:none;stroke:#000000;stroke-width:1;stroke-linecap:round;stroke-linejoin:miter;stroke-miterlimit:2.818;stroke-dasharray:none;stroke-opacity:1"
             id="path34" />
        </g>
        <g
           id="g36"
           transform="matrix(0.36,0,0,-0.36,0,841.89)">
          <path
             d="m 1390.125,1198.506 c 0,-54.677 44.324,-99 99,-99 54.676,0 99,44.323 99,99 0,0 0,0 0,0"
             style="fill:none;stroke:#000000;stroke-width:1;stroke-linecap:round;stroke-linejoin:miter;stroke-miterlimit:2.818;stroke-dasharray:none;stroke-opacity:1"
             id="path38" />
        </g>
        <g
           id="g40"
           transform="matrix(0.36,0,0,-0.36,0,841.89)">
          <path
             d="m 1397.062,1234.576 c 19.648,50.731 76.701,75.929 127.432,56.281 25.842,-10.008 46.273,-30.439 56.281,-56.281"
             style="fill:none;stroke:#000000;stroke-width:1;stroke-linecap:round;stroke-linejoin:miter;stroke-miterlimit:2.818;stroke-dasharray:none;stroke-opacity:1"
             id="path42" />
        </g>
        <g
           id="g44"
           transform="matrix(0.36,0,0,-0.36,0,841.89)">
          <path
             d="m 1390.125,1198.506 h 198"
             style="fill:none;stroke:#000000;stroke-width:1;stroke-linecap:round;stroke-linejoin:miter;stroke-miterlimit:2.818;stroke-dasharray:none;stroke-opacity:1"
             id="path46" />
        </g>
        <g
           id="g48"
           transform="matrix(0.36,0,0,-0.36,0,841.89)">
          <path
             d="m 1390.125,1198.506 c 0.165,54.562 44.531,98.66 99.093,98.494 40.415,-0.122 76.679,-24.847 91.557,-62.424"
             style="fill:none;stroke:#000000;stroke-width:1;stroke-linecap:round;stroke-linejoin:miter;stroke-miterlimit:2.818;stroke-dasharray:none;stroke-opacity:1"
             id="path50" />
        </g>
        <g
           id="g52"
           transform="matrix(0.36,0,0,-0.36,0,841.89)">
          <path
             d="m 1650.023,802.4112 -18.898,37.0887"
             style="fill:none;stroke:#000000;stroke-width:8;stroke-linecap:round;stroke-linejoin:miter;stroke-miterlimit:2.818;stroke-dasharray:none;stroke-opacity:1"
             id="path54" />
        </g>
        <g
           id="g56"
           transform="matrix(0.36,0,0,-0.36,0,841.89)">
          <path
             d="m 1631.125,839.4999 -36.182,71.0106"
             style="fill:none;stroke:#000000;stroke-width:8;stroke-linecap:round;stroke-linejoin:miter;stroke-miterlimit:2.818;stroke-dasharray:none;stroke-opacity:1"
             id="path58" />
        </g>
        <g
           id="g60"
           transform="matrix(0.36,0,0,-0.36,0,841.89)">
          <path
             d="m 1698.085,1198.207 h 18.898"
             style="fill:none;stroke:#000000;stroke-width:8;stroke-linecap:round;stroke-linejoin:miter;stroke-miterlimit:2.818;stroke-dasharray:none;stroke-opacity:1"
             id="path62" />
        </g>
        <g
           id="g64"
           transform="matrix(0.36,0,0,-0.36,0,841.89)">
          <path
             d="M 1716.983,802.1121 V 1198.207"
             style="fill:none;stroke:#000000;stroke-width:8;stroke-linecap:round;stroke-linejoin:miter;stroke-miterlimit:2.818;stroke-dasharray:none;stroke-opacity:1"
             id="path66" />
        </g>
        <g
           id="g68"
           transform="matrix(0.36,0,0,-0.36,0,841.89)">
          <path
             d="M 1698.085,839.2008 V 1198.207"
             style="fill:none;stroke:#000000;stroke-width:8;stroke-linecap:round;stroke-linejoin:miter;stroke-miterlimit:2.818;stroke-dasharray:none;stroke-opacity:1"
             id="path70" />
        </g>
        <g
           id="g72"
           transform="matrix(0.36,0,0,-0.36,0,841.89)">
          <path
             d="m 1716.983,802.1121 -18.898,37.0887"
             style="fill:none;stroke:#000000;stroke-width:8;stroke-linecap:round;stroke-linejoin:miter;stroke-miterlimit:2.818;stroke-dasharray:none;stroke-opacity:1"
             id="path74" />
        </g>
        <g
           id="g76"
           transform="matrix(0.36,0,0,-0.36,0,841.89)">
          <path
             d="m 1698.085,839.2008 -36.182,71.0106"
             style="fill:none;stroke:#000000;stroke-width:8;stroke-linecap:round;stroke-linejoin:miter;stroke-miterlimit:2.818;stroke-dasharray:none;stroke-opacity:1"
             id="path78" />
        </g>
        <g
           id="g80"
           transform="matrix(0.36,0,0,-0.36,0,841.89)">
          <path
             d="M 1650.023,802.4112 V 1198.506"
             style="fill:none;stroke:#000000;stroke-width:8;stroke-linecap:round;stroke-linejoin:miter;stroke-miterlimit:2.818;stroke-dasharray:none;stroke-opacity:1"
             id="path82" />
        </g>
        <g
           id="g84"
           transform="matrix(0.36,0,0,-0.36,0,841.89)">
          <path
             d="M 1631.125,839.4999 V 1198.506"
             style="fill:none;stroke:#000000;stroke-width:8;stroke-linecap:round;stroke-linejoin:miter;stroke-miterlimit:2.818;stroke-dasharray:none;stroke-opacity:1"
             id="path86" />
        </g>
        <g
           id="g88"
           transform="matrix(0.36,0,0,-0.36,0,841.89)">
          <path
             d="m 1631.125,1198.506 h 18.898"
             style="fill:none;stroke:#000000;stroke-width:8;stroke-linecap:round;stroke-linejoin:miter;stroke-miterlimit:2.818;stroke-dasharray:none;stroke-opacity:1"
             id="path90" />
        </g>
        <g
           id="g92"
           transform="matrix(0.36,0,0,-0.36,0,841.89)">
          <path
             d="m 1588.125,1198.506 h 43"
             style="fill:none;stroke:#000000;stroke-width:1;stroke-linecap:round;stroke-linejoin:miter;stroke-miterlimit:2.818;stroke-dasharray:none;stroke-opacity:1"
             id="path94" />
        </g>
        <g
           id="g96"
           transform="matrix(0.36,0,0,-0.36,0,841.89)">
          <path
             d="m 1870.25,1066.5 c 0,-195.0947 -158.155,-353.25 -353.25,-353.25 -195.095,0 -353.25,158.1553 -353.25,353.25 0,195.095 158.155,353.25 353.25,353.25 195.095,0 353.25,-158.155 353.25,-353.25 z"
             style="fill:none;stroke:#000000;stroke-width:4;stroke-linecap:round;stroke-linejoin:miter;stroke-miterlimit:2.818;stroke-dasharray:none;stroke-opacity:1"
             id="path98" />
        </g>
        <g
           id="g100"
           transform="matrix(0.36,0,0,-0.36,0,841.89)">
          <path
             d="m 1645.746,1194.586 h -10.592"
             style="fill:none;stroke:#000000;stroke-width:0.325;stroke-linecap:round;stroke-linejoin:miter;stroke-miterlimit:2.818;stroke-dasharray:none;stroke-opacity:1"
             id="path102" />
        </g>
        <g
           id="g104"
           transform="matrix(0.36,0,0,-0.36,0,841.89)">
          <path
             d="M 1635.154,1193.586 V 839.4999"
             style="fill:none;stroke:#000000;stroke-width:0.325;stroke-linecap:round;stroke-linejoin:miter;stroke-miterlimit:2.818;stroke-dasharray:none;stroke-opacity:1"
             id="path106" />
        </g>
        <path
           d="M 592.4686,547.1884 V 411.8391 h -3.813 V 539.67"
           style="fill:#fcf200;fill-opacity:1;fill-rule:evenodd;stroke:none"
           id="path108" />
        <g
           id="g110"
           transform="matrix(0.36,0,0,-0.36,0,841.89)">
          <path
             d="m 1645.746,818.6155 v 375.9705 h -10.592 V 839.4999"
             style="fill:none;stroke:#000000;stroke-width:0.325;stroke-linecap:round;stroke-linejoin:miter;stroke-miterlimit:2.818;stroke-dasharray:none;stroke-opacity:1"
             id="path112" />
        </g>
        <g
           id="g114"
           transform="matrix(0.36,0,0,-0.36,0,841.89)">
          <path
             d="m 1650.023,1198.506 48.062,-0.299"
             style="fill:none;stroke:#000000;stroke-width:0.325;stroke-linecap:round;stroke-linejoin:miter;stroke-miterlimit:2.818;stroke-dasharray:none;stroke-opacity:1"
             id="path116" />
        </g>
        <path
           d="M 616.6188,547.4947 V 412.1453 h -3.813 v 127.831"
           style="fill:#fcf200;fill-opacity:1;fill-rule:evenodd;stroke:none"
           id="path118" />
        <g
           id="g120"
           transform="matrix(0.36,0,0,-0.36,0,841.89)">
          <path
             d="m 1712.83,817.7647 v 375.9703 h -10.592 V 838.6491"
             style="fill:none;stroke:#000000;stroke-width:0.325;stroke-linecap:round;stroke-linejoin:miter;stroke-miterlimit:2.818;stroke-dasharray:none;stroke-opacity:1"
             id="path122" />
        </g>
      </g>
    </g>
  </g>
</svg>
